<?xml version="1.0" encoding="utf-8"?>
<!-- Generator: Adobe Illustrator 15.1.0, SVG Export Plug-In . SVG Version: 6.00 Build 0)  -->
<!DOCTYPE svg PUBLIC "-//W3C//DTD SVG 1.1//EN" "http://www.w3.org/Graphics/SVG/1.1/DTD/svg11.dtd">
<svg version="1.1" id="Layer_1" xmlns="http://www.w3.org/2000/svg" xmlns:xlink="http://www.w3.org/1999/xlink" x="0px" y="0px"
	 width="137px" height="72px" viewBox="0 0 137 72" enable-background="new 0 0 137 72" xml:space="preserve">
<g>
	<path fill="#83B3D3" d="M137,1.839H1.197l58.563,65.83c5.137,5.774,13.541,5.774,18.678,0L137,1.839z"/>
	<path fill="#28A8E0" d="M32.661,2.363l36.033,42.456l35.889-42.199L32.661,2.363z"/>
	<path fill="#FFFFFF" d="M89.982,14.45l-11.051,0.062C83.299,9.468,85.261,10.007,89.982,14.45z M60.023,18.349h19.413
		c-1.444-0.897-4.882-5.136-6.772-3.56c-0.154,0.129-5.461-6.438-8.947-3.273c-3.041,2.764-4.453-0.363-7.9,1.827
		C51.889,15.939,58.087,17.471,60.023,18.349z"/>
	<path fill="#471616" d="M68.94,1.851h-37.05v16.344l36.803,44.764l0.247-0.309l36.925-43.943V1.851H68.94z M68.94,43.362
		l-0.247,0.298L34.589,3.144h68.7L68.94,43.362z"/>
	<path fill="#471616" d="M68.694,43.66l0.247-0.298l20.064-23.493c-5.029,0.691-8.633,4.422-13.536,3.606
		c-2.471-0.41-2.546-1.83-3.252-3.243c-0.543-1.086-1.409-0.948-2.537-1.39c-1.049-0.411-1.657-1.264-3.756-0.771
		c-1.839,0.431-2.042,3.287-4.331,3.124c-1.229-0.088-1.318-1.817-3.088-4.031c-4.586-5.509-8.847-4.746-11.822,0.346L68.694,43.66z
		"/>
	<path fill="#28A8E0" d="M65.769,53.438l2.925-4.729l2.914,4.729l-2.914,4.739L65.769,53.438z"/>
	<path fill="#471616" d="M91.833,16.579c-0.025-0.028-2.702-2.809-6.883-5.558c-3.843-2.528-9.782-5.547-16.259-5.579
		C62.2,5.407,56.342,8.416,52.57,10.947c-4.098,2.75-6.68,5.537-6.705,5.565l-0.514-0.473c0.026-0.029,2.664-2.876,6.83-5.672
		c3.854-2.586,9.852-5.656,16.513-5.624c6.654,0.032,12.728,3.12,16.655,5.702c4.243,2.793,6.963,5.622,6.989,5.651L91.833,16.579z
		 M36.386,2.712h0.57v4.822h-0.57V2.712z M40.572,2.518h0.57v9.193h-0.57V2.518z"/>
	<path fill="#471616" d="M45.118,2.579h0.571v13.411h-0.571V2.579z M49.786,2.518h0.57v9.82h-0.57V2.518z M54.618,2.435h0.571v6.68
		h-0.571V2.435z M59.646,2.621h0.569v4.135h-0.569V2.621z M64.264,2.507h0.569v2.986h-0.569V2.507z"/>
	<path fill="#471616" d="M49.838,12.417L45.15,3.296l0.508-0.261l4.687,9.122L49.838,12.417z M54.727,9.317l-4.853-5.972
		l0.443-0.358l4.852,5.971L54.727,9.317z M59.055,7.225l-4.342-3.848l0.379-0.426l4.34,3.848L59.055,7.225z M64.422,5.665
		l-4.597-2.248l0.25-0.512l4.597,2.248L64.422,5.665z M68.544,5.327L64.42,3.419l0.24-0.517l4.124,1.908L68.544,5.327z
		 M100.388,2.754h0.57V6.96h-0.57V2.754z M96.202,2.363h0.57v9.439h-0.57V2.363z M91.657,2.754h0.569v13.43h-0.569V2.754z
		 M86.989,2.589h0.569v9.634h-0.569V2.589z M82.156,2.559h0.57v6.557h-0.57V2.559z M77.129,2.333h0.569v4.423h-0.569V2.333z
		 M72.418,2.692h0.738v2.801h-0.738V2.692z"/>
	<path fill="#471616" d="M87.54,12.322l-0.505-0.26l4.652-9.027l0.506,0.261L87.54,12.322z M82.648,9.231l-0.44-0.36l4.828-5.885
		l0.439,0.36L82.648,9.231z M78.281,7.224l-0.379-0.426l4.34-3.847l0.379,0.426L78.281,7.224z M72.918,5.667l-0.251-0.513
		l4.599-2.244l0.25,0.513L72.918,5.667z M68.801,5.329l-0.239-0.517l4.127-1.906l0.238,0.518L68.801,5.329z"/>
	<path fill="#FFFFFF" d="M48.829,25.315c0.373,0.45,0.648,0.934,0.586,1.54c-0.042,0.421-0.681,1.128-0.196,1.343l1.631-2.062
		c-0.438-0.11-3.903-4.255-3.959-4.709l-2.299,1.261c0.12,0.481,0.942,0.003,1.349,0.034c0.603,0.044,1.037,0.408,1.421,0.838
		c-1.257,1.054-4.315,3.65-4.638,3.704c-0.164,0.026-0.792-0.438-0.801-0.041c-0.004,0.19,0.62,0.738,0.739,0.88l1.622,1.931
		c0.451-0.206-0.08-0.532,0.149-0.905C44.602,28.858,47.999,26.025,48.829,25.315z M44.993,20.236
		c0.322-0.069,0.454,0.316,0.697-0.041l-1.782-2.122c-0.27-0.322-0.611-0.667-0.514,0.013c0.064,0.458-4.448,4.122-4.724,4.235
		c-0.349,0.144-0.552-0.304-0.807,0.071l1.595,1.898c0.179,0.211,0.347,0.445,0.543,0.641c0.247,0.247,0.151-0.488,0.164-0.425
		c-0.067-0.374,0.383-0.69,0.622-0.894C41.912,22.622,44.715,20.274,44.993,20.236z M38.611,19.57
		c-1.286,0.38-2.656-0.12-3.061-1.486c-0.396-1.334,0.447-2.733,1.506-3.493c1.047-0.75,2.611-0.706,3.182,0.61
		c0.251,0.582,0.115,1.242-0.068,1.82c-0.116,0.368-0.434,0.728,0.041,0.938l1.878-2.391c-0.768-0.461-1.104-1.225-1.673-1.889
		c-0.642-0.779-1.502-1.512-2.534-1.662c-2.088-0.295-4.055,1.86-4.216,3.816c-0.1,1.06,0.271,2.072,0.906,2.912
		c0.546,0.723,1.359,1.18,1.771,2.003c0.191,0.069,1.968-0.751,2.391-0.914C38.697,19.755,38.67,19.636,38.611,19.57
		C38.057,19.734,38.611,19.57,38.611,19.57z M67.206,46.062c-0.837-0.559-2.929-3.412-3.328-3.887l-0.24-0.285
		c-0.008-0.011-0.206,0.164-0.178,0.139c-0.126,0.106,0.097,0.417-0.039,0.629c-0.577,0.903-4.189,3.626-4.377,3.757
		c-0.404,0.279-0.846-0.116-1.083,0.23c0.523,0.621,2.023,2.577,2.197,2.605c0.348,0.058,0.107-0.593,0.154-0.728
		c0.089-0.269,1.915-1.779,2.582-2.336c0.245-0.205,0.5,0.31,0.646,0.525c0.238,0.353,0.345,0.729,0.217,1.142
		c-0.084,0.269-0.521,0.669-0.182,0.854l1.901-2.218c0.184-0.213-0.412-0.027-0.341-0.063c-0.269,0.139-0.522,0.171-0.773-0.021
		c-0.07-0.052-0.792-0.787-0.721-0.849c0.314-0.262,0.698-0.701,1.104-0.8c0.628-0.155,1.151,1.103,1.244,1.549
		c0.091,0.422,0.072,0.861-0.056,1.273c-0.09,0.281-0.354,0.507,0.014,0.677c0.518-0.709,1.034-1.416,1.55-2.125
		C67.395,46.138,67.293,46.112,67.206,46.062C67.114,45.999,67.307,46.111,67.206,46.062L67.206,46.062z M59.767,43.056
		c1.604-1.35,1.806-3.677,0.56-5.341c-1.358-1.811-3.908-2.252-5.678-0.765c-1.604,1.35-1.811,3.672-0.552,5.329
		C55.545,44.188,57.879,44.403,59.767,43.056C60.607,42.347,59.695,43.106,59.767,43.056z M59.428,39.597
		c-0.47,1.1-1.601,2.229-2.716,2.669c-1.322,0.52-2.255-0.603-1.717-1.858c0.473-1.103,1.604-2.224,2.719-2.667
		C59.063,37.205,59.946,38.355,59.428,39.597C59.151,40.244,59.48,39.475,59.428,39.597z M55.078,32.426
		c0.345,0.043,0.674,0.4,0.923,0.031c-0.539-0.64-1.08-1.28-1.621-1.919c-0.433,0.196,0.034,0.399-0.141,0.707
		c-0.178,0.312-1.863,0.569-2.312,0.648c0.164-0.469,0.652-1.903,0.842-2.063c0.396-0.323,0.643,0.314,0.933-0.102l-1.996-2.367
		c-0.225-0.266-0.406-0.748-0.713-0.495c0.028-0.022,0.004,1.07-0.064,1.261c-0.063,0.171-0.681,2.646-1.402,3.252
		c-0.359,0.302-1.627,1.407-1.966,1.526c-0.394,0.137-0.601-0.436-0.888-0.028l1.813,2.151c0.091,0.107,0.438,0.627,0.558,0.649
		c0.38,0.068,0.044-0.649,0.083-0.79c0.11-0.313,1.819-1.978,2.544-2.081C52.735,32.658,54,32.296,55.078,32.426
		C55.325,32.457,54.822,32.395,55.078,32.426z"/>
	<path fill="#DD6243" d="M50.523,18.482c-2.942-0.122-1.711-2.877,0.287-3.498c1.9-0.592,5.886,1.249,7.162,2.473
		c-2.025,0.622-4.646,0.532-6.874,0.635C50.934,15.822,50.402,16.614,50.523,18.482z M51.262,22.011
		c-1.484-1.148-1.016-3.832,1.282-3.017C55.459,20.511,51.921,21.352,51.262,22.011C51.262,22.011,51.292,21.98,51.262,22.011z
		 M57.438,27.613c-6.272-0.052-2.031-9.693,0.103-9.11C59.994,19.283,59.72,27.687,57.438,27.613z M61.88,24.463
		c-0.611,1.82-1.718,2.16-1.595-0.051c0.141-2.549,1.804-1.937,3.587-2.913c1.484-0.814,2.284-3.794,4.833-2.012
		c1.137,0.795,2.438,0.13,2.802,1.333c-0.019-0.061-3.307,7.5-1.478,7.5c-3.61,0-2.018-4.309-0.637-7.203
		c-1.344,0.644-3.523,4.866-1.732,5.562c-0.933,1.227-3.78,2.87-5.264,1.671C61.267,27.443,61.893,25.933,61.88,24.463z
		 M64.866,31.451c-2.538,0.761-5.909-0.878-1.826-1.702C65.574,29.236,68.27,30.314,64.866,31.451
		C64.969,31.42,64.773,31.482,64.866,31.451z M68.046,31.348c-0.535-1.207,0.409-2.645,1.95-1.6
		C71.341,30.659,69.377,32.008,68.046,31.348z M65.902,34.745c-1.754-0.544-7.667-0.409-3.796-2.012
		C63.299,32.24,69.494,32.805,65.902,34.745z M68.242,34.488c-0.005-0.699-0.373-1.949,0.985-1.416
		C70.854,33.711,68.242,35.001,68.242,34.488C68.242,34.488,68.242,34.365,68.242,34.488z M73.495,37.156
		c-1.046-0.893-2.104-0.942-3.078,0c-1.306-2.396-6.052-1.594-8.27-1.93C63.34,38.158,72.962,38.705,73.495,37.156z M72.11,38.92
		c-2.293-0.106-4.854-0.41-7.019,0.061c1.353,0.34,4.653,1.306,1.58,2.123c1.103,1.577,2.891,1.477,4.064,0.093
		c-0.478-0.234-0.735-0.523-1.13-0.769C70.822,40.207,71.959,39.506,72.11,38.92z M74.727,36.099
		c-3.848-2.264-2.874-3.949,0.257-5.52c1.641-0.823,5.329-3.79,6.875-2.802L74.727,36.099z"/>
	<path fill="#F49875" d="M71.987,30.805c-3.26-3.348,4.866-3.04,6.175-4.218c0.954,0.318,7.835-6.026,9.511-5.632
		c-1.204,1.412-3.799,5.92-5.657,5.92c-1.429,0-2.874-0.213-3.981,0.805C76.416,29.17,73.735,29.928,71.987,30.805L71.987,30.805z"
		/>
	<path fill="#F4B1A4" d="M73.054,26.711c-1.784,0.959-3.472-2.843-0.39-2.473c2.047,0.246,4.119-0.173,6.074,0.164
		C77.336,26.07,75.313,26.989,73.054,26.711z"/>
	<path fill="#471616" d="M68.259,2.876h0.682v2.411h-0.682V2.876z"/>
	<g>
		<path fill="#FFFFFF" d="M82.245,40.014c0.14,0.472,0.218,0.97,0.156,1.462c-0.077,0.636-0.712,2.129-1.58,1.703
			c-0.851-0.417-1.597-1.258-2.32-1.857c0.584-0.681,1.097-1.272,2.077-0.942c0.27,0.09,0.5-0.025,0.218-0.19
			c-0.296-0.17-2.267-1.43-2.373-1.31c-0.197,0.228,0.384,0.632,0.161,1.072c-0.167,0.325-0.444,0.606-0.679,0.887
			c-0.523-0.441-1.399-0.911-0.769-1.641c0.394-0.48,0.909-0.854,1.525-0.977c0.412-0.083,1.34,0.282,1.46-0.163l-2.37-1.139
			c0.129,0.581-2.438,3.292-3.006,3.976c-0.082,0.1-0.479,0.443-0.483,0.58c-0.006,0.312,0.453,0.07,0.478,0.061
			c0.354-0.131,4.96,3.718,5.074,3.981c0.072,0.204-0.16,0.418-0.021,0.532c-0.008-0.008,0.167,0.157,0.185,0.134
			c0.285-0.34,3.291-4.348,3.91-4.523c-0.578-0.885-1.155-1.769-1.723-2.657C81.735,39.189,82.15,39.692,82.245,40.014z
			 M77.763,44.892c-1.511-0.976-4.072,0.931-4.456,1.113c-0.757,0.358-1.303-0.395-0.911-1.093c0.342-0.604,1.014-0.897,1.682-0.938
			c0.201-0.013,0.981,0.144,1.061,0.019c0.096-0.147,0.167-0.16,0.031-0.251l-1.867-1.262c-0.129,0.768-1.008,1.257-1.512,1.776
			c-0.599,0.621-1.105,1.404-1.105,2.296c0,0.826,0.494,1.56,1.22,1.936c0.827,0.431,1.687,0.085,2.419-0.371
			c0.456-0.286,0.913-0.624,1.4-0.853c0.725-0.34,1.676-0.045,1.421,0.924c-0.206,0.781-0.983,1.5-1.75,1.703
			c-0.448,0.119-0.924,0.079-1.362-0.065c-0.314-0.104-0.723-0.534-0.896-0.081l2.534,1.846c0.075-0.553,0.38-0.793,0.79-1.138
			c0.535-0.469,1.047-0.96,1.451-1.55C78.755,47.671,79.03,45.947,77.763,44.892z"/>
		<path fill="#FFFFFF" d="M77.763,44.892C78.436,45.326,77.333,44.532,77.763,44.892z M99.033,17.741
			C99.028,17.744,99.028,17.744,99.033,17.741z"/>
		<path fill="#FFFFFF" d="M104.46,16.133c-0.53,0.531-6.127-1.703-6.535-2.011c-0.212-0.084-0.219-0.961-0.514-0.606
			c-0.294,0.355-0.589,0.71-0.885,1.065l-0.914,1.101c-0.189,0.229-0.391,0.333-0.027,0.524c0.608-0.305,3.941,5.345,3.644,6.157
			c-0.527,0.273-5.031-3.68-5.152-3.94c-0.037-0.106,0.199-0.743-0.153-0.688c-0.166,0.026-0.54,0.652-0.646,0.78l-0.647,0.78
			c0.242,0.353,0.376-0.016,0.698,0.031c0.278,0.055,1.342,0.968,1.631,1.21c-0.527,0.02-1.954,0.095-2.136,0.083
			c-0.656,0.081-0.307-0.483-0.738-0.678c-0.552,0.671-1.105,1.341-1.656,2.011l-0.965,1.169c-0.04,0.047-0.034,0.023,0.036,0.082
			c0.24,0.199,0.075,0.123,0.413,0.004c0.368-0.129,4.772,3.588,4.931,3.776c0.274,0.328-0.112,0.71,0.299,0.889
			c0.437-0.529,0.871-1.06,1.309-1.588c0.066-0.081,0.103-0.073,0.015-0.145c-0.311-0.257-0.346,0.154-0.729,0.112
			c-0.388-0.065-3.198-2.451-4.29-3.354l5.966-0.221c0.219-0.008,0.829,0.652,0.777,0.885c-0.059,0.275-0.337,0.406,0.04,0.578
			c0.348-0.419,0.716-0.837,1.059-1.262l0.166-0.205c0.064-0.052,0.117-0.118,0.152-0.193l0.122-0.153
			c0.31-0.353,1.31-1.459,1.189-1.564c-0.336-0.291-0.498,0.339-0.944-0.039c-0.253-0.181-0.89-1.301-1.05-1.573
			c-0.192-0.327,0.442-0.652,0.701-0.814c0.565-0.351,2.362-0.861,2.534,0.253c0.029,0.188-0.198,0.401-0.062,0.513
			c0.032,0.027,0.148,0.176,0.196,0.119c0.119-0.144,1.718-2.068,2.401-2.888C104.624,16.269,104.545,16.166,104.46,16.133
			L104.46,16.133z M99.094,17.702C99.15,17.666,99.206,17.63,99.094,17.702c-0.021,0.013-0.041,0.025-0.061,0.039l0.06-0.038
			c-0.251,0.16-0.486,0.344-0.697,0.554c-0.379-0.653-0.76-1.307-1.138-1.96c0.856,0.358,1.711,0.717,2.564,1.078
			C99.564,17.448,99.319,17.558,99.094,17.702L99.094,17.702z M92.004,25.859c-1.729-1.44-4.097-1.022-5.52,0.604
			c-1.386,1.683-1.246,4.121,0.439,5.541c1.702,1.402,4.125,1.046,5.51-0.615C93.814,29.713,93.721,27.266,92.004,25.859z
			 M91.799,30.672l-0.019,0.019c-0.896,0.94-2.443,0.07-3.278-0.532c-0.834-0.604-2.263-1.87-1.351-2.986
			c0.769-0.937,2.273-0.168,3.05,0.351c0.873,0.584,2.482,1.889,1.656,3.067C91.911,30.526,91.949,30.484,91.799,30.672z"/>
		<path fill="#FFFFFF" d="M92.004,25.859C92.855,26.557,91.819,25.706,92.004,25.859z M91.778,30.691l0.02-0.019
			c0.021-0.027,0.04-0.054,0.059-0.081C91.82,30.636,91.775,30.691,91.778,30.691z M87.207,32.498
			c0.082,0.069,0.199,0.164-0.046-0.041c-2.063-1.548-4.507-1.095-6.113,0.841c-0.719,0.866-1.438,1.73-2.154,2.596
			c0.255,0.373,0.555-0.086,0.926,0.128c0.318,0.182,4.543,3.711,4.613,3.904c0.119,0.333-0.186,0.399,0.104,0.637
			c0.125,0.104,3.301-3.816,3.591-4.505C88.63,34.781,88.229,33.382,87.207,32.498z M86.248,37.412
			c-0.175,0.216-0.032,0.039-0.483,0.473c-0.223,0.214-4.685-3.401-4.506-3.597c0.607-0.668,1.868-1.132,2.603-0.944
			C85.455,33.751,87.655,35.716,86.248,37.412z"/>
	</g>
</g>
</svg>
